<?xml version="1.0" encoding="UTF-8"?>
<svg width="61px" height="49px" viewBox="0 0 61 49" version="1.1" xmlns="http://www.w3.org/2000/svg" xmlns:xlink="http://www.w3.org/1999/xlink">
    <title>Group</title>
    <g id="Design" stroke="none" stroke-width="1" fill="none" fill-rule="evenodd">
        <g id="Tablet" transform="translate(-690.000000, -103.000000)">
            <g id="Search" transform="translate(0.000000, 87.000000)">
                <g id="Group" transform="translate(690.000000, 16.000000)">
                    <rect id="Rectangle" fill="#F0CCC5" x="0" y="0" width="61" height="49" rx="5"></rect>
                    <path d="M46.7865827,38.1579513 L38.9764172,30.3477858 C38.8371662,30.2085347 38.6555344,30.135882 38.4617939,30.135882 L37.8381915,30.135882 C39.9148479,27.8897027 41.1862702,24.8927787 41.1862702,21.5931351 C41.1862702,14.6366388 35.5496314,9 28.5931351,9 C21.6366388,9 16,14.6366388 16,21.5931351 C16,28.5496314 21.6366388,34.1862702 28.5931351,34.1862702 C31.8927787,34.1862702 34.8897027,32.9148479 37.135882,30.8442459 L37.135882,31.4617939 C37.135882,31.6555344 37.2145891,31.8371662 37.3477858,31.9764172 L45.1579513,39.7865827 C45.4425077,40.0711391 45.9026415,40.0711391 46.1871979,39.7865827 L46.7865827,39.1871979 C47.0711391,38.9026415 47.0711391,38.4425077 46.7865827,38.1579513 Z M28.5931351,32.2488648 C22.7022118,32.2488648 17.9374054,27.4840584 17.9374054,21.5931351 C17.9374054,15.7022118 22.7022118,10.9374054 28.5931351,10.9374054 C34.4840584,10.9374054 39.2488648,15.7022118 39.2488648,21.5931351 C39.2488648,27.4840584 34.4840584,32.2488648 28.5931351,32.2488648 Z" id="Shape" fill="#4E4741" fill-rule="nonzero"></path>
                </g>
            </g>
        </g>
    </g>
</svg>